<mxfile host="app.diagrams.net" modified="2023-10-04T13:49:44.659Z" agent="Mozilla/5.0 (Windows NT 10.0; Win64; x64) AppleWebKit/537.36 (KHTML, like Gecko) Chrome/117.0.0.0 Safari/537.36 Edg/117.0.2045.47" etag="4Es2KVwjNydgkH062jWQ" version="22.0.2" type="device">
  <diagram name="Page-1" id="jYbx9gNufVEU6GtF779E">
    <mxGraphModel dx="996" dy="587" grid="1" gridSize="10" guides="1" tooltips="1" connect="1" arrows="1" fold="1" page="1" pageScale="1" pageWidth="827" pageHeight="1169" math="0" shadow="0">
      <root>
        <mxCell id="0" />
        <mxCell id="1" parent="0" />
        <mxCell id="LYzY7vke_15Y3NmeHB-b-8" style="edgeStyle=orthogonalEdgeStyle;rounded=0;orthogonalLoop=1;jettySize=auto;html=1;exitX=0.5;exitY=1;exitDx=0;exitDy=0;entryX=0.5;entryY=0;entryDx=0;entryDy=0;" edge="1" parent="1" source="LYzY7vke_15Y3NmeHB-b-1" target="LYzY7vke_15Y3NmeHB-b-5">
          <mxGeometry relative="1" as="geometry" />
        </mxCell>
        <mxCell id="LYzY7vke_15Y3NmeHB-b-1" value="output: &quot;enter&lt;br&gt;number&quot;" style="shape=parallelogram;perimeter=parallelogramPerimeter;whiteSpace=wrap;html=1;fixedSize=1;" vertex="1" parent="1">
          <mxGeometry x="360" y="80" width="120" height="60" as="geometry" />
        </mxCell>
        <mxCell id="LYzY7vke_15Y3NmeHB-b-11" style="edgeStyle=orthogonalEdgeStyle;rounded=0;orthogonalLoop=1;jettySize=auto;html=1;exitX=0.5;exitY=1;exitDx=0;exitDy=0;entryX=0.5;entryY=0;entryDx=0;entryDy=0;" edge="1" parent="1" source="LYzY7vke_15Y3NmeHB-b-5" target="LYzY7vke_15Y3NmeHB-b-9">
          <mxGeometry relative="1" as="geometry" />
        </mxCell>
        <mxCell id="LYzY7vke_15Y3NmeHB-b-5" value="user inputs&lt;br&gt;number" style="shape=parallelogram;perimeter=parallelogramPerimeter;whiteSpace=wrap;html=1;fixedSize=1;" vertex="1" parent="1">
          <mxGeometry x="360" y="160" width="120" height="60" as="geometry" />
        </mxCell>
        <mxCell id="LYzY7vke_15Y3NmeHB-b-7" style="edgeStyle=orthogonalEdgeStyle;rounded=0;orthogonalLoop=1;jettySize=auto;html=1;exitX=0.5;exitY=1;exitDx=0;exitDy=0;entryX=0.5;entryY=0;entryDx=0;entryDy=0;" edge="1" parent="1" source="LYzY7vke_15Y3NmeHB-b-6" target="LYzY7vke_15Y3NmeHB-b-1">
          <mxGeometry relative="1" as="geometry" />
        </mxCell>
        <mxCell id="LYzY7vke_15Y3NmeHB-b-6" value="start" style="rounded=1;whiteSpace=wrap;html=1;" vertex="1" parent="1">
          <mxGeometry x="360" width="120" height="60" as="geometry" />
        </mxCell>
        <mxCell id="LYzY7vke_15Y3NmeHB-b-12" style="edgeStyle=orthogonalEdgeStyle;rounded=0;orthogonalLoop=1;jettySize=auto;html=1;exitX=0.5;exitY=1;exitDx=0;exitDy=0;entryX=0.5;entryY=0;entryDx=0;entryDy=0;" edge="1" parent="1" source="LYzY7vke_15Y3NmeHB-b-9" target="LYzY7vke_15Y3NmeHB-b-10">
          <mxGeometry relative="1" as="geometry" />
        </mxCell>
        <mxCell id="LYzY7vke_15Y3NmeHB-b-9" value="output: &quot;enter&lt;br&gt;number&quot;" style="shape=parallelogram;perimeter=parallelogramPerimeter;whiteSpace=wrap;html=1;fixedSize=1;" vertex="1" parent="1">
          <mxGeometry x="360" y="240" width="120" height="60" as="geometry" />
        </mxCell>
        <mxCell id="LYzY7vke_15Y3NmeHB-b-16" style="edgeStyle=orthogonalEdgeStyle;rounded=0;orthogonalLoop=1;jettySize=auto;html=1;exitX=0.5;exitY=1;exitDx=0;exitDy=0;entryX=0.5;entryY=0;entryDx=0;entryDy=0;" edge="1" parent="1" source="LYzY7vke_15Y3NmeHB-b-10" target="LYzY7vke_15Y3NmeHB-b-15">
          <mxGeometry relative="1" as="geometry" />
        </mxCell>
        <mxCell id="LYzY7vke_15Y3NmeHB-b-10" value="user inputs&lt;br&gt;number" style="shape=parallelogram;perimeter=parallelogramPerimeter;whiteSpace=wrap;html=1;fixedSize=1;" vertex="1" parent="1">
          <mxGeometry x="360" y="320" width="120" height="60" as="geometry" />
        </mxCell>
        <mxCell id="LYzY7vke_15Y3NmeHB-b-22" style="edgeStyle=orthogonalEdgeStyle;rounded=0;orthogonalLoop=1;jettySize=auto;html=1;exitX=0;exitY=0.5;exitDx=0;exitDy=0;entryX=0.5;entryY=0;entryDx=0;entryDy=0;" edge="1" parent="1" source="LYzY7vke_15Y3NmeHB-b-14" target="LYzY7vke_15Y3NmeHB-b-20">
          <mxGeometry relative="1" as="geometry" />
        </mxCell>
        <mxCell id="LYzY7vke_15Y3NmeHB-b-23" style="edgeStyle=orthogonalEdgeStyle;rounded=0;orthogonalLoop=1;jettySize=auto;html=1;exitX=1;exitY=0.5;exitDx=0;exitDy=0;entryX=0.5;entryY=0;entryDx=0;entryDy=0;" edge="1" parent="1" source="LYzY7vke_15Y3NmeHB-b-14" target="LYzY7vke_15Y3NmeHB-b-21">
          <mxGeometry relative="1" as="geometry" />
        </mxCell>
        <mxCell id="LYzY7vke_15Y3NmeHB-b-14" value="is the&lt;br&gt;result 0?" style="rhombus;whiteSpace=wrap;html=1;" vertex="1" parent="1">
          <mxGeometry x="380" y="480" width="80" height="80" as="geometry" />
        </mxCell>
        <mxCell id="LYzY7vke_15Y3NmeHB-b-17" style="edgeStyle=orthogonalEdgeStyle;rounded=0;orthogonalLoop=1;jettySize=auto;html=1;exitX=0.5;exitY=1;exitDx=0;exitDy=0;entryX=0.5;entryY=0;entryDx=0;entryDy=0;" edge="1" parent="1" source="LYzY7vke_15Y3NmeHB-b-15" target="LYzY7vke_15Y3NmeHB-b-14">
          <mxGeometry relative="1" as="geometry" />
        </mxCell>
        <mxCell id="LYzY7vke_15Y3NmeHB-b-15" value="number_1 mod number_2" style="rounded=0;whiteSpace=wrap;html=1;" vertex="1" parent="1">
          <mxGeometry x="360" y="400" width="120" height="60" as="geometry" />
        </mxCell>
        <mxCell id="LYzY7vke_15Y3NmeHB-b-26" style="edgeStyle=orthogonalEdgeStyle;rounded=0;orthogonalLoop=1;jettySize=auto;html=1;exitX=0.5;exitY=1;exitDx=0;exitDy=0;entryX=0;entryY=0.5;entryDx=0;entryDy=0;" edge="1" parent="1" source="LYzY7vke_15Y3NmeHB-b-20" target="LYzY7vke_15Y3NmeHB-b-24">
          <mxGeometry relative="1" as="geometry" />
        </mxCell>
        <mxCell id="LYzY7vke_15Y3NmeHB-b-20" value="output: &quot;yes&quot;" style="shape=parallelogram;perimeter=parallelogramPerimeter;whiteSpace=wrap;html=1;fixedSize=1;" vertex="1" parent="1">
          <mxGeometry x="240" y="560" width="120" height="60" as="geometry" />
        </mxCell>
        <mxCell id="LYzY7vke_15Y3NmeHB-b-25" style="edgeStyle=orthogonalEdgeStyle;rounded=0;orthogonalLoop=1;jettySize=auto;html=1;exitX=0.5;exitY=1;exitDx=0;exitDy=0;entryX=1;entryY=0.5;entryDx=0;entryDy=0;" edge="1" parent="1" source="LYzY7vke_15Y3NmeHB-b-21" target="LYzY7vke_15Y3NmeHB-b-24">
          <mxGeometry relative="1" as="geometry" />
        </mxCell>
        <mxCell id="LYzY7vke_15Y3NmeHB-b-21" value="output: &quot;no&quot;" style="shape=parallelogram;perimeter=parallelogramPerimeter;whiteSpace=wrap;html=1;fixedSize=1;" vertex="1" parent="1">
          <mxGeometry x="480" y="560" width="120" height="60" as="geometry" />
        </mxCell>
        <mxCell id="LYzY7vke_15Y3NmeHB-b-24" value="end" style="rounded=1;whiteSpace=wrap;html=1;" vertex="1" parent="1">
          <mxGeometry x="360" y="640" width="120" height="60" as="geometry" />
        </mxCell>
        <mxCell id="LYzY7vke_15Y3NmeHB-b-28" value="Yes" style="text;html=1;align=center;verticalAlign=middle;resizable=0;points=[];autosize=1;strokeColor=none;fillColor=none;" vertex="1" parent="1">
          <mxGeometry x="320" y="490" width="40" height="30" as="geometry" />
        </mxCell>
        <mxCell id="LYzY7vke_15Y3NmeHB-b-31" value="No" style="text;html=1;strokeColor=none;fillColor=none;align=center;verticalAlign=middle;whiteSpace=wrap;rounded=0;" vertex="1" parent="1">
          <mxGeometry x="470" y="490" width="60" height="30" as="geometry" />
        </mxCell>
      </root>
    </mxGraphModel>
  </diagram>
</mxfile>
